<svg width="32" height="32" viewBox="0 0 32 32" fill="none" xmlns="http://www.w3.org/2000/svg">
<mask id="mask0_32_136" style="mask-type:alpha" maskUnits="userSpaceOnUse" x="0" y="0" width="32" height="32">
<path d="M0 0H31.73V31.972H0V0Z" fill="white"/>
</mask>
<g mask="url(#mask0_32_136)">
<path fill-rule="evenodd" clip-rule="evenodd" d="M15.8391 0C7.08015 0 -0.0478516 7.172 -0.0478516 15.985C-0.0478516 24.8 7.08015 31.972 15.8391 31.972C24.6021 31.972 31.7301 24.8 31.7301 15.985C31.7301 7.172 24.6021 0 15.8401 0H15.8391ZM22.9301 12.328C22.9361 12.485 22.9401 12.645 22.9401 12.806C22.9401 17.666 19.2621 23.272 12.5341 23.272C10.5446 23.2752 8.59681 22.701 6.92715 21.619C7.88553 21.7356 8.85751 21.6611 9.78695 21.3998C10.7164 21.1386 11.5848 20.6958 12.3421 20.097C11.5773 20.0806 10.8367 19.8252 10.2243 19.3666C9.61183 18.908 9.15827 18.2693 8.92715 17.54C9.47458 17.6474 10.0395 17.6258 10.5771 17.477C9.74731 17.3066 9.00186 16.8547 8.467 16.1977C7.93214 15.5408 7.64074 14.7191 7.64215 13.872C7.64215 13.856 7.64215 13.84 7.64615 13.824C8.13615 14.101 8.70215 14.264 9.30215 14.284C8.7999 13.9466 8.38858 13.4906 8.10462 12.9563C7.82065 12.4221 7.6728 11.826 7.67415 11.221C7.67415 10.548 7.85515 9.917 8.16815 9.373C9.08336 10.5079 10.2277 11.4368 11.5265 12.0992C12.8252 12.7616 14.2491 13.1425 15.7051 13.217C15.6421 12.9418 15.6105 12.6603 15.6111 12.378C15.6111 10.348 17.2491 8.7 19.2681 8.7C19.7687 8.69951 20.264 8.80227 20.7231 9.00186C21.1821 9.20146 21.5951 9.49359 21.9361 9.86C22.7575 9.69971 23.5446 9.39752 24.2621 8.967C23.9899 9.81858 23.4178 10.5424 22.6521 11.004C23.3774 10.9187 24.0854 10.7239 24.7521 10.426C24.2623 11.163 23.6454 11.807 22.9301 12.328Z" fill="#295091"/>
</g>
</svg>
