<svg width="75" height="30" viewBox="0 0 75 30" fill="none" xmlns="http://www.w3.org/2000/svg">
<path d="M60.1313 30C68.3429 30 75 23.2841 75 15C75 6.71586 68.3429 0 60.1313 0C51.9196 0 45.2625 6.71586 45.2625 15C45.2625 23.2841 51.9196 30 60.1313 30ZM40.6481 21.7241C41.056 21.7241 41.4472 21.5607 41.7357 21.2696C42.0242 20.9786 42.1862 20.584 42.1862 20.1724C42.1862 19.7609 42.0242 19.3662 41.7357 19.0752C41.4472 18.7842 41.056 18.6207 40.6481 18.6207C40.2401 18.6207 39.8489 18.7842 39.5604 19.0752C39.272 19.3662 39.1099 19.7609 39.1099 20.1724C39.1099 20.584 39.272 20.9786 39.5604 21.2696C39.8489 21.5607 40.2401 21.7241 40.6481 21.7241ZM33.8013 8.61H37.3164V21.8255H34.0751L28.7203 14.5779L28.7633 21.7221H25.2389V8.52414H28.4906L33.8023 16.1928L33.8013 8.61ZM17.943 22.0479C14.556 22.0479 12.2231 19.8072 12.2231 16.5703V8.61H15.7475V16.5786C15.7475 17.91 16.6581 18.8286 17.943 18.8286C19.2371 18.8286 20.1477 17.91 20.1477 16.5869V8.61H23.6721V16.5703C23.6721 19.8083 21.3392 22.049 17.943 22.049V22.0479ZM6.78425 15.0341L11.8827 21.7231H7.45488L3.66079 16.381H3.52543V21.7221H0V8.61H3.52441V14.0721H3.61669L7.20057 8.61H11.2695L6.78425 15.0341Z" fill="#0C2F75"/>
<path d="M72.138 21.719V18.5503H67.1237L72.5205 8.6069H62.3411V11.7672H66.7412L61.3187 21.719H72.138ZM60.5363 16.5672V8.6069H57.0119V16.5838C57.0119 17.9069 56.1013 18.8255 54.8072 18.8255C53.5224 18.8255 52.6118 17.9069 52.6118 16.5755V8.6069H49.0874V16.5672C49.0874 19.8052 51.4192 22.0459 54.8072 22.0459C58.2035 22.0459 60.5363 19.8041 60.5363 16.5672Z" fill="white"/>
</svg>
