<svg width="52" height="51" viewBox="0 0 52 51" fill="none" xmlns="http://www.w3.org/2000/svg">
<path d="M17.204 1.36001C18.9267 1.36001 20.3547 1.56401 21.488 1.97201C22.6213 2.33467 23.5507 2.81067 24.276 3.4C24.8653 3.85334 25.3413 4.352 25.704 4.89601C26.0667 5.44001 26.3387 5.98401 26.52 6.52801C26.7013 7.07201 26.792 7.59334 26.792 8.09201C26.792 9.22534 26.384 10.1093 25.568 10.744C24.7973 11.3787 23.936 11.696 22.984 11.696C22.0773 11.696 21.2613 11.4013 20.536 10.812C19.8107 10.2227 19.448 9.38401 19.448 8.29601C19.448 7.29867 19.788 6.46001 20.468 5.78001C21.148 5.05467 22.0093 4.64667 23.052 4.55601C22.8707 3.96667 22.304 3.46801 21.352 3.06001C20.4453 2.60667 19.2893 2.38001 17.884 2.38001C15.572 2.38001 13.668 3.08267 12.172 4.48801C10.7213 5.84801 9.996 7.84267 9.996 10.472C9.996 11.7413 10.2227 13.0333 10.676 14.348C11.1747 15.6627 12.104 16.9547 13.464 18.224C14.2347 18.088 15.028 17.9973 15.844 17.952C16.66 17.8613 17.272 17.816 17.68 17.816C18.496 17.816 19.1533 17.952 19.652 18.224C20.1507 18.496 20.4 18.8813 20.4 19.38C20.4 19.788 20.2187 20.1053 19.856 20.332C19.5387 20.5587 19.0853 20.672 18.496 20.672C17.6347 20.672 16.728 20.4907 15.776 20.128C14.824 19.72 14.076 19.4027 13.532 19.176C10.9027 19.9467 8.772 21.216 7.14 22.984C5.508 24.7067 4.692 27.1547 4.692 30.328C4.692 33.456 5.508 36.108 7.14 38.284C8.772 40.46 10.948 42.1373 13.668 43.316C16.4333 44.4493 19.516 45.016 22.916 45.016C25.3187 45.016 27.5853 44.744 29.716 44.2C31.892 43.6107 33.796 42.772 35.428 41.684C37.1053 40.596 38.42 39.304 39.372 37.808C40.324 36.2667 40.8 34.5213 40.8 32.572C40.8 31.7107 40.6187 30.6227 40.256 29.308C39.8933 27.948 39.1453 26.6333 38.012 25.364C36.8787 24.0493 35.1333 23.0293 32.776 22.304L33.592 21.624C36.9013 22.6213 39.2587 24.2307 40.664 26.452C42.0693 28.628 42.772 31.076 42.772 33.796C42.772 36.516 41.956 39.1227 40.324 41.616C38.692 44.1093 36.3347 46.1493 33.252 47.736C30.1693 49.2773 26.4293 50.048 22.032 50.048C19.0853 50.048 16.2747 49.6627 13.6 48.892C10.9707 48.1213 8.636 47.0107 6.596 45.56C4.556 44.064 2.94667 42.2733 1.768 40.188C0.589336 38.1027 3.02494e-06 35.7453 3.02494e-06 33.116C3.02494e-06 30.668 0.476003 28.5827 1.428 26.86C2.38 25.092 3.55867 23.6413 4.964 22.508C6.36934 21.3747 7.77467 20.5133 9.18 19.924C10.5853 19.2893 11.7187 18.8587 12.58 18.632C11.084 17.952 9.81467 17.1587 8.772 16.252C7.77467 15.3 7.004 14.28 6.46 13.192C5.96134 12.0587 5.712 10.948 5.712 9.86001C5.712 8.77201 5.96134 7.72934 6.46 6.73201C6.95867 5.68934 7.684 4.76001 8.636 3.94401C9.588 3.12801 10.7667 2.49334 12.172 2.04001C13.6227 1.58667 15.3 1.36001 17.204 1.36001ZM41.956 4.05312e-06C44.7667 4.05312e-06 47.124 0.816004 49.028 2.448C50.932 4.03467 51.884 6.27867 51.884 9.18001C51.884 10.7213 51.5893 12.104 51 13.328C50.456 14.5067 49.6853 15.5493 48.688 16.456C47.736 17.3627 46.648 18.1107 45.424 18.7C44.3813 19.1987 42.9987 19.7427 41.276 20.332C39.5987 20.9213 37.7853 21.5107 35.836 22.1C33.932 22.6893 32.096 23.2787 30.328 23.868C28.6053 24.412 27.2 24.888 26.112 25.296C24.4347 25.9307 23.0067 26.724 21.828 27.676C20.6947 28.5827 20.128 29.7613 20.128 31.212C20.128 32.3907 20.468 33.388 21.148 34.204C21.828 35.02 22.644 35.632 23.596 36.04C24.5933 36.448 25.5227 36.652 26.384 36.652C26.792 36.652 27.2907 36.6067 27.88 36.516C28.5147 36.38 29.0813 36.1987 29.58 35.972C30.0787 35.7453 30.3733 35.4733 30.464 35.156C29.7387 35.02 29.0133 34.7027 28.288 34.204C27.608 33.66 27.268 32.8213 27.268 31.688C27.268 30.6 27.6307 29.7387 28.356 29.104C29.0813 28.4693 29.9653 28.152 31.008 28.152C32.096 28.152 32.9573 28.492 33.592 29.172C34.272 29.852 34.612 30.736 34.612 31.824C34.612 33.0933 34.1813 34.1813 33.32 35.088C32.504 35.9493 31.4613 36.6067 30.192 37.06C28.968 37.468 27.744 37.672 26.52 37.672C25.2507 37.672 23.9587 37.4 22.644 36.856C21.3293 36.312 20.2413 35.4733 19.38 34.34C18.5187 33.1613 18.088 31.62 18.088 29.716C18.088 28.1293 18.428 26.724 19.108 25.5C19.8333 24.276 20.8987 23.188 22.304 22.236C23.7093 21.284 25.432 20.468 27.472 19.788C28.832 19.3347 30.4867 18.836 32.436 18.292C34.3853 17.748 36.38 17.1587 38.42 16.524C40.5053 15.8893 42.3867 15.1867 44.064 14.416C46.3307 13.3733 47.872 12.308 48.688 11.22C49.504 10.132 49.912 9.02134 49.912 7.88801C49.912 6.57334 49.5493 5.41734 48.824 4.42001C48.0987 3.37734 47.124 2.56134 45.9 1.97201C44.7213 1.33734 43.4293 1.02001 42.024 1.02001C41.48 1.02001 41.0267 1.06534 40.664 1.15601C40.3013 1.24667 40.0747 1.40534 39.984 1.63201C40.6187 1.94934 41.0947 2.40267 41.412 2.99201C41.7293 3.58134 41.888 4.17067 41.888 4.76001C41.888 5.71201 41.5027 6.50534 40.732 7.14001C40.0067 7.77467 39.1227 8.09201 38.08 8.09201C37.2187 8.09201 36.4027 7.82001 35.632 7.27601C34.8613 6.68667 34.476 5.82534 34.476 4.692C34.476 3.51334 34.8613 2.58401 35.632 1.90401C36.448 1.22401 37.4227 0.748005 38.556 0.476006C39.7347 0.158671 40.868 4.05312e-06 41.956 4.05312e-06Z" fill="#AC1313"/>
</svg>
