<svg width="106" height="43" viewBox="0 0 106 43" fill="none" xmlns="http://www.w3.org/2000/svg">
<path d="M25.641 8.24997C25.641 10.12 25.157 11.836 24.189 13.398C23.221 14.96 21.813 16.236 19.965 17.226C18.117 18.216 15.917 18.799 13.365 18.975L11.946 26.928C11.396 29.986 9.9 31.515 7.458 31.515C6.116 31.515 4.87299 31.119 3.72899 30.327C2.60699 29.535 1.70499 28.325 1.02299 26.697C0.340995 25.069 -5.24521e-06 23.067 -5.24521e-06 20.691C-5.24521e-06 16.225 0.714995 12.441 2.14499 9.33897C3.59699 6.21497 5.53299 3.88297 7.95299 2.34297C10.395 0.780968 13.079 -3.17693e-05 16.005 -3.17693e-05C18.073 -3.17693e-05 19.822 0.362968 21.252 1.08897C22.704 1.81497 23.793 2.80497 24.519 4.05897C25.267 5.29097 25.641 6.68797 25.641 8.24997ZM13.959 15.576C18.469 15.004 20.724 12.661 20.724 8.54697C20.724 7.09497 20.24 5.91797 19.272 5.01597C18.326 4.09197 16.852 3.62997 14.85 3.62997C12.584 3.62997 10.604 4.34497 8.91 5.77497C7.23799 7.20497 5.93999 9.19597 5.016 11.748C4.11399 14.278 3.66299 17.171 3.66299 20.427C3.66299 21.791 3.79499 23.001 4.059 24.057C4.345 25.113 4.69699 25.938 5.11499 26.532C5.555 27.104 5.973 27.39 6.36899 27.39C6.91899 27.39 7.33699 26.631 7.62299 25.113L8.71199 18.876C7.854 18.744 7.48 18.689 7.59 18.711C6.93 18.601 6.50099 18.403 6.303 18.117C6.105 17.809 6.006 17.424 6.006 16.962C6.006 16.478 6.138 16.093 6.40199 15.807C6.688 15.521 7.073 15.378 7.55699 15.378C7.777 15.378 7.942 15.389 8.052 15.411C8.58 15.499 8.987 15.554 9.273 15.576C9.55899 13.86 9.96599 11.561 10.494 8.67897C10.626 7.93097 10.923 7.40297 11.385 7.09497C11.869 6.76497 12.43 6.59997 13.068 6.59997C13.794 6.59997 14.311 6.74297 14.619 7.02897C14.949 7.29297 15.114 7.72197 15.114 8.31597C15.114 8.66797 15.092 8.95397 15.048 9.17397L13.959 15.576ZM41.8071 17.787C42.0931 17.787 42.3131 17.93 42.4671 18.216C42.6211 18.502 42.6981 18.865 42.6981 19.305C42.6981 20.361 42.3791 20.988 41.7411 21.186C40.4211 21.648 38.9691 21.912 37.3851 21.978C36.9671 23.826 36.1421 25.311 34.9101 26.433C33.6781 27.533 32.2811 28.083 30.7191 28.083C29.3991 28.083 28.2661 27.764 27.3201 27.126C26.3961 26.488 25.6921 25.641 25.2081 24.585C24.7241 23.529 24.4821 22.385 24.4821 21.153C24.4821 19.481 24.8011 17.996 25.4391 16.698C26.0771 15.378 26.9571 14.355 28.0791 13.629C29.2011 12.881 30.4441 12.507 31.8081 12.507C33.4801 12.507 34.8221 13.09 35.8341 14.256C36.8681 15.4 37.4731 16.819 37.6491 18.513C38.6831 18.447 39.9151 18.227 41.3451 17.853C41.5211 17.809 41.6751 17.787 41.8071 17.787ZM30.9831 24.585C31.6871 24.585 32.2921 24.299 32.7981 23.727C33.3261 23.155 33.6781 22.33 33.8541 21.252C33.1721 20.79 32.6441 20.185 32.2701 19.437C31.9181 18.689 31.7421 17.897 31.7421 17.061C31.7421 16.709 31.7751 16.357 31.8411 16.005H31.6761C30.7961 16.005 30.0591 16.434 29.4651 17.292C28.8931 18.128 28.6071 19.316 28.6071 20.856C28.6071 22.066 28.8381 22.99 29.3001 23.628C29.7841 24.266 30.3451 24.585 30.9831 24.585ZM42.2088 28.083C41.3728 28.083 40.7788 27.643 40.4268 26.763C40.0968 25.883 39.9318 24.475 39.9318 22.539C39.9318 19.679 40.3388 16.962 41.1528 14.388C41.3508 13.75 41.6698 13.288 42.1098 13.002C42.5718 12.694 43.2098 12.54 44.0238 12.54C44.4638 12.54 44.7718 12.595 44.9478 12.705C45.1238 12.815 45.2118 13.024 45.2118 13.332C45.2118 13.684 45.0468 14.476 44.7168 15.708C44.4968 16.588 44.3208 17.358 44.1888 18.018C44.0568 18.656 43.9468 19.459 43.8588 20.427C44.4528 18.711 45.1568 17.259 45.9708 16.071C46.8068 14.883 47.6538 14.003 48.5118 13.431C49.3918 12.837 50.2168 12.54 50.9868 12.54C51.7568 12.54 52.2958 12.716 52.6038 13.068C52.9338 13.42 53.0988 13.959 53.0988 14.685C53.0988 15.389 52.8898 16.665 52.4718 18.513C52.2958 19.305 52.1748 19.899 52.1088 20.295C53.2088 17.589 54.4298 15.62 55.7718 14.388C57.1138 13.156 58.3678 12.54 59.5338 12.54C60.9638 12.54 61.6788 13.255 61.6788 14.685C61.6788 15.543 61.4368 17.094 60.9528 19.338C60.5348 21.252 60.3258 22.517 60.3258 23.133C60.3258 24.013 60.6448 24.453 61.2828 24.453C61.7228 24.453 62.2398 24.189 62.8338 23.661C63.4498 23.111 64.2638 22.231 65.2758 21.021C65.5398 20.713 65.8368 20.559 66.1668 20.559C66.4528 20.559 66.6728 20.691 66.8268 20.955C67.0028 21.219 67.0908 21.582 67.0908 22.044C67.0908 22.924 66.8818 23.606 66.4638 24.09C65.5178 25.256 64.4948 26.213 63.3948 26.961C62.3168 27.709 61.0848 28.083 59.6988 28.083C58.5768 28.083 57.7298 27.764 57.1578 27.126C56.5858 26.466 56.2998 25.52 56.2998 24.288C56.2998 23.672 56.4538 22.572 56.7618 20.988C57.0478 19.602 57.1908 18.645 57.1908 18.117C57.1908 17.765 57.0698 17.589 56.8278 17.589C56.5418 17.589 56.1348 17.963 55.6068 18.711C55.0788 19.437 54.5508 20.405 54.0228 21.615C53.4948 22.825 53.0658 24.101 52.7358 25.443C52.4938 26.499 52.2078 27.203 51.8778 27.555C51.5698 27.907 51.0638 28.083 50.3598 28.083C49.6338 28.083 49.0838 27.742 48.7098 27.06C48.3578 26.356 48.1818 25.509 48.1818 24.519C48.1818 23.683 48.2918 22.473 48.5118 20.889C48.6878 19.481 48.7758 18.557 48.7758 18.117C48.7758 17.765 48.6548 17.589 48.4128 17.589C48.0828 17.589 47.6648 17.985 47.1588 18.777C46.6528 19.569 46.1578 20.581 45.6738 21.813C45.2118 23.045 44.8378 24.255 44.5518 25.443C44.3098 26.477 44.0238 27.181 43.6938 27.555C43.3858 27.907 42.8908 28.083 42.2088 28.083ZM82.0444 20.559C82.3304 20.559 82.5504 20.691 82.7044 20.955C82.8804 21.219 82.9684 21.582 82.9684 22.044C82.9684 22.924 82.7594 23.606 82.3414 24.09C81.3954 25.256 80.3724 26.213 79.2724 26.961C78.1944 27.709 76.9624 28.083 75.5764 28.083C74.4104 28.083 73.4644 27.665 72.7384 26.829C71.4844 27.643 70.1754 28.061 68.8114 28.083C68.5254 32.329 67.8764 35.871 66.8644 38.709C65.8524 41.569 64.3674 42.999 62.4094 42.999C61.2214 42.999 60.3414 42.57 59.7694 41.712C59.1974 40.854 58.9114 39.666 58.9114 38.148C58.9114 35.992 59.4064 33.473 60.3964 30.591C61.3864 27.731 62.9154 24.574 64.9834 21.12C64.9834 17.908 64.9614 15.675 64.9174 14.421C64.8954 13.783 65.1484 13.277 65.6764 12.903C66.2044 12.529 66.8644 12.342 67.6564 12.342C68.1184 12.342 68.4484 12.441 68.6464 12.639C68.8664 12.815 68.9874 13.178 69.0094 13.728C69.0094 14.278 69.0204 14.685 69.0424 14.949C69.7464 14.069 70.4394 13.442 71.1214 13.068C71.8034 12.672 72.5294 12.474 73.2994 12.474C74.5314 12.474 75.5324 12.969 76.3024 13.959C77.0944 14.949 77.4904 16.247 77.4904 17.853C77.4904 19.019 77.3034 20.152 76.9294 21.252C76.5554 22.352 76.0384 23.353 75.3784 24.255C75.8404 24.387 76.2254 24.453 76.5334 24.453C77.2594 24.453 77.9524 24.189 78.6124 23.661C79.2724 23.133 80.1194 22.253 81.1534 21.021C81.4174 20.713 81.7144 20.559 82.0444 20.559ZM68.9764 24.915C69.7684 24.739 70.4944 24.31 71.1544 23.628C71.8364 22.924 72.3754 22.066 72.7714 21.054C73.1674 20.02 73.3654 18.942 73.3654 17.82C73.3654 17.16 73.2334 16.665 72.9694 16.335C72.7054 15.983 72.3534 15.807 71.9134 15.807C71.1214 15.807 70.1644 16.643 69.0424 18.315C69.0204 19.283 69.0094 20.702 69.0094 22.572C69.0094 23.584 68.9984 24.365 68.9764 24.915ZM62.6734 39.765C63.2674 39.765 63.7624 38.467 64.1584 35.871C64.5544 33.297 64.8074 30.085 64.9174 26.235C63.9714 28.435 63.2234 30.536 62.6734 32.538C62.1234 34.54 61.8484 36.223 61.8484 37.587C61.8484 38.291 61.9364 38.83 62.1124 39.204C62.2664 39.578 62.4534 39.765 62.6734 39.765ZM95.0281 20.559C95.3141 20.559 95.5341 20.691 95.6881 20.955C95.8641 21.219 95.9521 21.582 95.9521 22.044C95.9521 22.924 95.7431 23.606 95.3251 24.09C94.5111 25.08 93.3561 25.993 91.8601 26.829C90.3861 27.665 88.8021 28.083 87.1081 28.083C84.7981 28.083 83.0051 27.456 81.7291 26.202C80.4531 24.948 79.8151 23.232 79.8151 21.054C79.8151 19.536 80.1341 18.128 80.7721 16.83C81.4101 15.51 82.2901 14.465 83.4121 13.695C84.5561 12.925 85.8431 12.54 87.2731 12.54C88.5491 12.54 89.5721 12.925 90.3421 13.695C91.1121 14.443 91.4971 15.466 91.4971 16.764C91.4971 18.282 90.9471 19.591 89.8471 20.691C88.7691 21.769 86.9321 22.627 84.3361 23.265C84.8861 24.277 85.9311 24.783 87.4711 24.783C88.4611 24.783 89.5831 24.442 90.8371 23.76C92.1131 23.056 93.2131 22.143 94.1371 21.021C94.4011 20.713 94.6981 20.559 95.0281 20.559ZM86.7121 15.774C85.8981 15.774 85.2051 16.247 84.6331 17.193C84.0831 18.139 83.8081 19.283 83.8081 20.625V20.691C85.1061 20.383 86.1291 19.921 86.8771 19.305C87.6251 18.689 87.9991 17.974 87.9991 17.16C87.9991 16.742 87.8781 16.412 87.6361 16.17C87.4161 15.906 87.1081 15.774 86.7121 15.774ZM98.8422 28.083C97.5442 28.083 96.4332 27.764 95.5092 27.126C94.6072 26.466 93.9252 25.608 93.4632 24.552C93.0012 23.496 92.7702 22.363 92.7702 21.153C92.7702 19.481 93.0782 17.996 93.6942 16.698C94.3322 15.378 95.1902 14.355 96.2682 13.629C97.3462 12.881 98.5562 12.507 99.8982 12.507C101.196 12.507 102.307 12.837 103.231 13.497C104.155 14.135 104.848 14.982 105.31 16.038C105.772 17.094 106.003 18.227 106.003 19.437C106.003 21.109 105.684 22.605 105.046 23.925C104.408 25.223 103.539 26.246 102.439 26.994C101.361 27.72 100.162 28.083 98.8422 28.083ZM99.2052 24.519C99.9532 24.519 100.58 24.112 101.086 23.298C101.614 22.484 101.878 21.296 101.878 19.734C101.878 18.524 101.658 17.611 101.218 16.995C100.778 16.379 100.25 16.071 99.6342 16.071C98.8422 16.071 98.1822 16.478 97.6542 17.292C97.1482 18.084 96.8952 19.272 96.8952 20.856C96.8952 22.11 97.1152 23.034 97.5552 23.628C97.9952 24.222 98.5452 24.519 99.2052 24.519Z" fill="black"/>
</svg>
